<svg xmlns="http://www.w3.org/2000/svg" viewBox="0 0 100 100">
  <defs>
    <linearGradient id="goldGrad" x1="0%" y1="0%" x2="100%" y2="100%">
      <stop offset="0%" style="stop-color:#C2A469"/>
      <stop offset="100%" style="stop-color:#A08550"/>
    </linearGradient>
    <linearGradient id="crimsonGrad" x1="0%" y1="0%" x2="100%" y2="100%">
      <stop offset="0%" style="stop-color:#9A1B1B"/>
      <stop offset="100%" style="stop-color:#7A1515"/>
    </linearGradient>
  </defs>
  
  <!-- Background circle -->
  <circle cx="50" cy="50" r="48" fill="#121212"/>
  <circle cx="50" cy="50" r="46" fill="none" stroke="#2B2E32" stroke-width="2"/>
  
  <!-- Happy mask (gold - left/back) -->
  <g transform="translate(18, 22) scale(0.55)">
    <path d="M50 10 C25 10 5 30 5 55 C5 80 25 95 50 95 C75 95 95 80 95 55 C95 30 75 10 50 10" 
          fill="url(#goldGrad)" stroke="#A08550" stroke-width="2"/>
    <!-- Left eye -->
    <ellipse cx="32" cy="45" rx="8" ry="10" fill="#121212"/>
    <!-- Right eye -->
    <ellipse cx="68" cy="45" rx="8" ry="10" fill="#121212"/>
    <!-- Happy mouth -->
    <path d="M30 65 Q50 85 70 65" fill="none" stroke="#121212" stroke-width="4" stroke-linecap="round"/>
  </g>
  
  <!-- Sad mask (crimson - right/front) -->
  <g transform="translate(35, 30) scale(0.55)">
    <path d="M50 10 C25 10 5 30 5 55 C5 80 25 95 50 95 C75 95 95 80 95 55 C95 30 75 10 50 10" 
          fill="url(#crimsonGrad)" stroke="#7A1515" stroke-width="2"/>
    <!-- Left eye -->
    <ellipse cx="32" cy="45" rx="8" ry="10" fill="#121212"/>
    <!-- Right eye -->
    <ellipse cx="68" cy="45" rx="8" ry="10" fill="#121212"/>
    <!-- Sad mouth -->
    <path d="M30 75 Q50 60 70 75" fill="none" stroke="#121212" stroke-width="4" stroke-linecap="round"/>
  </g>
</svg>
